<svg xmlns="http://www.w3.org/2000/svg" width="28" height="28" fill="none"><g fill="#F3F3F3" opacity=".8"><path d="M25.128 9.412a8.096 8.096 0 0 0-.521-2.752 5.73 5.73 0 0 0-3.276-3.27 8.23 8.23 0 0 0-2.719-.522C17.416 2.815 17.036 2.8 14 2.8c-3.038 0-3.427 0-4.615.068-.93.02-1.849.195-2.718.522a5.726 5.726 0 0 0-3.275 3.27 8.127 8.127 0 0 0-.521 2.713c-.054 1.196-.07 1.575-.07 4.607 0 3.033 0 3.42.07 4.607.018.93.194 1.846.52 2.716a5.73 5.73 0 0 0 3.277 3.269 8.2 8.2 0 0 0 2.718.559c1.198.053 1.577.07 4.615.07 3.038 0 3.427 0 4.615-.07a8.209 8.209 0 0 0 2.719-.52 5.736 5.736 0 0 0 3.275-3.27c.327-.87.503-1.786.521-2.716.054-1.195.07-1.574.07-4.608-.002-3.032-.002-3.417-.072-4.605ZM13.99 19.715a5.744 5.744 0 0 1-5.75-5.741 5.745 5.745 0 0 1 5.75-5.741c3.175 0 5.75 2.57 5.75 5.741a5.746 5.746 0 0 1-5.75 5.74Zm5.98-10.356a1.338 1.338 0 1 1 0-2.677 1.338 1.338 0 1 1 0 2.677Z"/><path d="M13.993 17.479a3.503 3.503 0 1 0 0-7.007 3.503 3.503 0 0 0 0 7.007Z"/></g></svg>